# xmcd
#
# Track frame offsets:
#	150
#	22533
#	40856
#	61593
#	88082
#	116393
#	129929
#	150340
#	171298
#	203582
#	226489
#	239376
#	258578
#	270008
#	284361
#	298283
#	312851
#	340153
#	352180
#
# Disc length: 4796 seconds
#
# Revision: 0
# Processed by: cddbd v1.5.2PL0 Copyright (c) Steve Scherf et al.
# Submitted via: EasyCDDAExtractor 8.2.3.1
#
DISCID=0112ba13
DTITLE=The BLUE HAWAIIANS - Universal Music of...79'56''
DYEAR=2005
DGENRE=Blues
TTITLE0=A Cheat
TTITLE1=Savage Night
TTITLE2=Flesh and Soul
TTITLE3=Shakin' All Over
TTITLE4=Highlife
TTITLE5=Sway
TTITLE6=08 , Lonely Star
TTITLE7=Jockey Full Of Bourbon
TTITLE8=Trouble Bay
TTITLE9=Dick Tracy
TTITLE10=Searchin' For Da Cat
TTITLE11=Deadman's
TTITLE12=Juiet Surf
TTITLE13=Martini Five-O
TTITLE14=Swingin' Hula Girl
TTITLE15=Drop the Hammer, Max
TTITLE16=Caravan
TTITLE17=Theme For Young Lovers
TTITLE18=p.s.
EXTD=
EXTT0=
EXTT1=
EXTT2=
EXTT3=
EXTT4=
EXTT5=
EXTT6=
EXTT7=
EXTT8=
EXTT9=
EXTT10=
EXTT11=
EXTT12=
EXTT13=
EXTT14=
EXTT15=
EXTT16=
EXTT17=
EXTT18=
PLAYORDER=
